/* XPM */
static char * fluid_nexus_icon_xpm[] = {
"32 32 47 1",
" 	c None",
".	c #812F2B",
"+	c #84302D",
"@	c #812E2B",
"#	c #832F2C",
"$	c #7F2E2B",
"%	c #7D2D2A",
"&	c #83302D",
"*	c #7A2C29",
"=	c #822F2C",
"-	c #812F2C",
";	c #7A2B29",
">	c #88312E",
",	c #87312E",
"'	c #8B8B8B",
")	c #200A0A",
"!	c #170807",
"~	c #190808",
"{	c #8C8C8C",
"]	c #8D8D8D",
"^	c #656565",
"/	c #808080",
"(	c #929292",
"_	c #5B5B5B",
":	c #101010",
"<	c #111111",
"[	c #0A0A0A",
"}	c #171717",
"|	c #4E4E4E",
"1	c #8E8E8E",
"2	c #3C3C3C",
"3	c #1A1A1A",
"4	c #848484",
"5	c #000000",
"6	c #181818",
"7	c #565656",
"8	c #484848",
"9	c #030303",
"0	c #0F0F0F",
"a	c #949494",
"b	c #424242",
"c	c #0C0C0C",
"d	c #5E5E5E",
"e	c #040404",
"f	c #0B0B0B",
"g	c #020202",
"h	c #050505",
"                                ",
" .                              ",
"  +@                            ",
"  @#+$                          ",
"   ++#+%                        ",
"   $#+++&*                      ",
"    ++++++=                     ",
"    %+++++++-                   ",
"     &++++++#+$                 ",
"     ;++++++++#+%               ",
"      =+++#>,,,,,,.         '   ",
"       +++,)!!!!!!~      '{{']  ",
"       -#+,!           '{{{{{'^ ",
"        ++,!         /({{{{{{'_ ",
"        $#,!      :<<[}|1'{{{]2 ",
"         +,!    :<<<<<::34'{{]5 ",
"         %,!   ::<<<<<<<<6]{{7  ",
"          ,!   <<<<<<<<<<:8]{9  ",
"          =~  :<<<<<<<<<<<0ab   ",
"              <<<<<<<<<<<<cd    ",
"              <<<<<<<<<<<<<9    ",
"             /[<<<<<<<<<<<<e    ",
"             (}:<<<<<<<<<<<     ",
"            '{|:<<<<<<<<<<f     ",
"            {{13<<<<<<<<::5     ",
"           '{{'46:<<<<<<:g      ",
"           {{{{']80c<<<f5       ",
"           {{{{{{]ad9h          ",
"          ''{{{{{{b             ",
"           ]'']]79              ",
"            ^_25                ",
"                                "};
