<?xml version="1.0" encoding="UTF-8" standalone="no"?>
<!-- Created with Inkscape (http://www.inkscape.org/) -->

<svg
   xmlns:svg="http://www.w3.org/2000/svg"
   xmlns="http://www.w3.org/2000/svg"
   version="1.1"
   width="128"
   height="128"
   id="svg4338">
  <defs
     id="defs4340" />
  <g
     transform="translate(0,-924.36218)"
     id="layer1">
    <path
       d="m 32,964.36218 c -13.254833,0 -23.9999994,10.74517 -24,24 l 0,15.78122 0,0.2188 c 0,4.4183 3.581722,8 8,8 4.418278,0 8,-3.5817 8,-8 l 0,-16.00002 c 0,-4.41828 3.581722,-8 8,-8 4.418278,0 8,3.58172 8,8 10e-7,13.25482 10.745167,24.00002 24,24.00002 6.149571,0 11.75327,-2.3217 16,-6.125 4.24673,3.8033 9.850428,6.125 16,6.125 13.25483,0 24,-10.7452 24,-24.00002 l 0,-16 c 0,-4.41828 -3.58172,-8 -8,-8 -4.41828,0 -8,3.58172 -8,8 l 0,16 c 0,4.4183 -3.58172,8 -8,8 -4.418278,0 -8,-3.5817 -8,-8 l 0,-8 c 0,-4.41828 -3.581722,-8 -8,-8 -4.418278,0 -8,3.58172 -8,8 l 0,8 c 0,4.4183 -3.581722,8 -8,8 -4.418278,0 -8,-3.5817 -8,-8 0,-13.25483 -10.745168,-24 -24,-24 z"
       id="path4890"
       style="fill:#ffffff;fill-opacity:1;stroke:#555555;stroke-width:6;stroke-miterlimit:4;stroke-opacity:1;stroke-dasharray:none" />
  </g>
</svg>
