<?xml version="1.0" encoding="UTF-8" standalone="no"?>
<!-- Created with Inkscape (http://www.inkscape.org/) -->

<svg
   xmlns:svg="http://www.w3.org/2000/svg"
   xmlns="http://www.w3.org/2000/svg"
   version="1.1"
   width="128"
   height="128"
   id="svg4338">
  <defs
     id="defs4340" />
  <path
     d="M 32,40 C 18.745167,40 8.0000006,50.74517 8,64 L 8,79.78125 8,80 c 0,4.4183 3.581722,8 8,8 4.418278,0 8,-3.5817 8,-8 l 0,-16 c 0,-4.41828 3.581722,-8 8,-8 4.418278,0 8,3.58172 8,8 0,3.703277 0.845838,7.211882 2.34375,10.34375 l 13.4375,-13.4375 C 54.2652,49.110839 44.207878,40 32,40 z m 80,0 c -4.41828,0 -8,3.58172 -8,8 l 0,16 c 0,4.4183 -3.58172,8 -8,8 -4.418278,0 -8,-3.5817 -8,-8 l 0,-8 c 0,-1.355609 -0.342441,-2.631183 -0.9375,-3.75 l -16.875,16.84375 c -0.326071,0.395106 -0.698644,0.76768 -1.09375,1.09375 L 53.65625,85.65625 C 56.788116,87.154165 60.29672,88 64,88 70.149571,88 75.75327,85.6783 80,81.875 84.24673,85.6783 89.850428,88 96,88 c 13.25483,0 24,-10.74518 24,-24 l 0,-16 c 0,-4.41828 -3.58172,-8 -8,-8 z"
     id="path4890"
     style="fill:#ffffff;fill-opacity:1;stroke:#555555;stroke-width:6;stroke-miterlimit:4;stroke-opacity:1;stroke-dasharray:none" />
</svg>
