<?xml version="1.0" encoding="utf-8"?>
<!-- Generator: Adobe Illustrator 15.1.0, SVG Export Plug-In . SVG Version: 6.00 Build 0)  -->
<svg version="1.2" baseProfile="tiny" id="Layer_1" xmlns="http://www.w3.org/2000/svg" xmlns:xlink="http://www.w3.org/1999/xlink"
	 x="0px" y="0px" width="20px" height="20px" viewBox="0 0 20 20" overflow="inherit" xml:space="preserve">
<g id="remove_x5F_2">
	<path id="remove_x5F_2_1_" fill="#f99400" d="M13.544,10l6.272-6.272c0.245-0.247,0.245-0.65,0-0.895L17.17,0.187
		c-0.245-0.245-0.647-0.245-0.894,0l-6.274,6.274L3.725,0.183c-0.246-0.245-0.648-0.245-0.894,0L0.185,2.831
		c-0.246,0.243-0.246,0.646,0,0.895l6.277,6.276l-6.274,6.274c-0.244,0.244-0.244,0.647,0,0.894l2.646,2.646
		c0.246,0.244,0.651,0.244,0.895,0l6.273-6.273l6.271,6.271c0.245,0.244,0.649,0.244,0.895,0l2.647-2.648
		c0.244-0.243,0.244-0.647,0-0.894L13.544,10z"/>
</g>
</svg>
