<?xml version="1.0" encoding="utf-8"?>
<!-- Generator: Adobe Illustrator 15.1.0, SVG Export Plug-In . SVG Version: 6.00 Build 0)  -->
<svg version="1.2" baseProfile="tiny" id="Layer_1" xmlns="http://www.w3.org/2000/svg" xmlns:xlink="http://www.w3.org/1999/xlink"
	 x="0px" y="0px" width="35px" height="35px" viewBox="0 0 35 35" overflow="inherit" xml:space="preserve">
<path fill="#2b2b2b" d="M35,17.5C35,27.168,27.164,35,17.5,35C7.834,35,0,27.168,0,17.5C0,7.834,7.834,0,17.5,0
	C27.164,0,35,7.834,35,17.5z"/>
<path fill="#FFFFFF" d="M15.177,8.577c-0.15-0.15-0.447-0.273-0.66-0.273h-6.88c-0.213,0-0.387,0.174-0.387,0.386v6.882
	c0,0.212,0.123,0.51,0.273,0.659l10.353,10.355c0.151,0.149,0.397,0.149,0.547,0l7.107-7.11c0.151-0.149,0.151-0.396,0-0.544
	L15.177,8.577z M12.136,13.189c-0.604,0.604-1.583,0.604-2.188,0c-0.604-0.604-0.604-1.583,0-2.187s1.583-0.604,2.188,0
	C12.739,11.606,12.739,12.585,12.136,13.189z M29.896,19.751l-6.561,6.561c-0.151,0.15-0.513,0.388-0.622,0.348
	c-0.108-0.041-0.32-0.197-0.472-0.348l-0.533-0.532c-0.15-0.151-0.15-0.397,0-0.548l5.481-5.48c0.15-0.151,0.391-0.515,0.348-0.622
	c-0.041-0.111-0.198-0.321-0.348-0.473L17.383,8.85c-0.15-0.15-0.362-0.347-0.406-0.372c-0.042-0.025-0.106-0.074-0.142-0.11
	s0.109-0.065,0.322-0.065h1.612c0.213,0,0.7,0.061,0.824,0.137c0.122,0.075,0.346,0.26,0.496,0.41l9.807,9.806
	c0.15,0.151,0.308,0.365,0.349,0.473C30.286,19.238,30.047,19.6,29.896,19.751z"/>
</svg>