<?xml version="1.0" encoding="utf-8"?>
<!-- Generator: Adobe Illustrator 15.1.0, SVG Export Plug-In . SVG Version: 6.00 Build 0)  -->
<svg version="1.2" baseProfile="tiny" id="Layer_1" xmlns="http://www.w3.org/2000/svg" xmlns:xlink="http://www.w3.org/1999/xlink"
	 x="0px" y="0px" width="20px" height="20px" viewBox="0 0 20 20" overflow="inherit" xml:space="preserve">
<g id="pause_1_">
	<path id="pause" fill="#ffffff" d="M8.438,19.375C8.438,19.719,8.156,20,7.812,20h-3.75c-0.344,0-0.625-0.281-0.625-0.625V0.625
		C3.438,0.281,3.719,0,4.062,0h3.75c0.344,0,0.625,0.281,0.625,0.625V19.375z M16.562,0.625C16.562,0.281,16.281,0,15.938,0h-3.75
		c-0.344,0-0.625,0.281-0.625,0.625v18.75c0,0.344,0.281,0.625,0.625,0.625h3.75c0.344,0,0.625-0.281,0.625-0.625V0.625z"/>
</g>
</svg>
