<?xml version="1.0" encoding="utf-8"?>
<!-- Generator: Adobe Illustrator 15.1.0, SVG Export Plug-In . SVG Version: 6.00 Build 0)  -->
<svg version="1.2" baseProfile="tiny" id="Layer_1" xmlns="http://www.w3.org/2000/svg" xmlns:xlink="http://www.w3.org/1999/xlink"
	 x="0px" y="0px" width="20px" height="20px" viewBox="0 0 20 20" overflow="inherit" xml:space="preserve">
<g id="refresh">
	<path fill="#ffffff" d="M17.976,16.072c-3.236,4.262-9.229,5.224-13.642,2.189l-0.049-0.033l-1.274,1.677
		c-0.139,0.183-0.304,0.151-0.367-0.068l-1.487-5.218c-0.062-0.221,0.073-0.4,0.303-0.398l5.425,0.032
		c0.229,0.002,0.305,0.151,0.165,0.335l-1.246,1.642c3.305,2.235,7.764,1.508,10.178-1.671c1.491-1.963,1.856-4.426,1.221-6.63
		h2.574C20.362,10.681,19.808,13.66,17.976,16.072z M2.796,12.102C2.16,9.897,2.526,7.434,4.017,5.471
		C6.43,2.292,10.89,1.565,14.195,3.8l-1.247,1.642c-0.139,0.183-0.064,0.333,0.165,0.334l5.425,0.033
		c0.229,0.001,0.366-0.178,0.304-0.398l-1.487-5.217c-0.063-0.221-0.229-0.252-0.366-0.069l-1.275,1.677l-0.049-0.033
		C11.252-1.266,5.259-0.305,2.023,3.957C0.19,6.369-0.363,9.349,0.224,12.102H2.796L2.796,12.102z"/>
</g>
</svg>
