<?xml version="1.0" encoding="UTF-8" standalone="no"?>
<!-- Created with Inkscape (http://www.inkscape.org/) -->

<svg
   xmlns:dc="http://purl.org/dc/elements/1.1/"
   xmlns:cc="http://creativecommons.org/ns#"
   xmlns:rdf="http://www.w3.org/1999/02/22-rdf-syntax-ns#"
   xmlns:svg="http://www.w3.org/2000/svg"
   xmlns="http://www.w3.org/2000/svg"
   xmlns:sodipodi="http://sodipodi.sourceforge.net/DTD/sodipodi-0.dtd"
   xmlns:inkscape="http://www.inkscape.org/namespaces/inkscape"
   width="192"
   height="192"
   id="svg2"
   sodipodi:version="0.32"
   inkscape:version="0.48.0 r9654"
   version="1.0"
   sodipodi:docname="hwit_icon-192x192.svg"
   inkscape:output_extension="org.inkscape.output.svg.inkscape"
   inkscape:export-filename="/home/tundish/play/hwit/web/img/hewit-96x96.png"
   inkscape:export-xdpi="180"
   inkscape:export-ydpi="180">
  <defs
     id="defs4">
    <linearGradient
       id="linearGradient4668">
      <stop
         style="stop-opacity:1;stop-color:#ffffff"
         offset="0"
         id="stop4670" />
      <stop
         id="stop4676"
         offset="0.46808511"
         style="stop-color:#dcdeda;stop-opacity:0.49803922;" />
      <stop
         style="stop-color:#babdb6;stop-opacity:0;"
         offset="1"
         id="stop4672" />
    </linearGradient>
    <inkscape:perspective
       sodipodi:type="inkscape:persp3d"
       inkscape:vp_x="0 : 526.18109 : 1"
       inkscape:vp_y="0 : 1000 : 0"
       inkscape:vp_z="744.09448 : 526.18109 : 1"
       inkscape:persp3d-origin="372.04724 : 350.78739 : 1"
       id="perspective10" />
    <filter
       inkscape:collect="always"
       id="filter3209"
       x="-0.28575924"
       width="1.5715185"
       y="-0.29401946"
       height="1.5880389"
       color-interpolation-filters="sRGB">
      <feGaussianBlur
         inkscape:collect="always"
         stdDeviation="4.5820476"
         id="feGaussianBlur3211" />
    </filter>
  </defs>
  <sodipodi:namedview
     id="base"
     pagecolor="#ffffff"
     bordercolor="#666666"
     borderopacity="1.0"
     gridtolerance="10000"
     guidetolerance="10"
     objecttolerance="10"
     inkscape:pageopacity="0.0"
     inkscape:pageshadow="2"
     inkscape:zoom="1.3333333"
     inkscape:cx="6.7499906"
     inkscape:cy="85.841418"
     inkscape:document-units="px"
     inkscape:current-layer="layer1"
     showgrid="false"
     inkscape:window-width="1015"
     inkscape:window-height="547"
     inkscape:window-x="1"
     inkscape:window-y="25"
     inkscape:window-maximized="0" />
  <metadata
     id="metadata7">
    <rdf:RDF>
      <cc:Work
         rdf:about="">
        <dc:format>image/svg+xml</dc:format>
        <dc:type
           rdf:resource="http://purl.org/dc/dcmitype/StillImage" />
        <dc:title>HWIT project logo</dc:title>
        <dc:date>2009-11-06</dc:date>
        <dc:creator>
          <cc:Agent>
            <dc:title>D Haynes</dc:title>
          </cc:Agent>
        </dc:creator>
        <dc:rights>
          <cc:Agent>
            <dc:title>GPLv3</dc:title>
          </cc:Agent>
        </dc:rights>
        <dc:publisher>
          <cc:Agent>
            <dc:title>Thuswise Ltd</dc:title>
          </cc:Agent>
        </dc:publisher>
        <dc:description>The logo depicts the act of giving, implies transparency of intention, and suggests a global context.</dc:description>
        <cc:license
           rdf:resource="" />
      </cc:Work>
    </rdf:RDF>
  </metadata>
  <g
     inkscape:label="Layer 1"
     inkscape:groupmode="layer"
     id="layer1"
     transform="translate(0,96)">
    <path
       style="opacity:0.84465518;fill:#2e3436;fill-opacity:1;stroke:none;filter:url(#filter3209)"
       d="M 36.33384,18.054549 C 37.005421,20.186842 10.579762,37.569087 8.4375,35.625 -1.1773802,26.899565 6.6569476,37.777721 6.09375,31.359375 3.0493604,-3.2396073 -0.45423937,8.6241895 14.715684,2.4681941 22.405932,-0.65252897 31.27134,-1.9820765 36.33384,18.054549 z"
       id="path2395"
       sodipodi:nodetypes="csssc"
       transform="matrix(3.5026041,0,0,0.66963731,26.436913,65.513936)"
       inkscape:connector-curvature="0" />
    <path
       sodipodi:type="arc"
       style="fill:#c4a000;fill-opacity:1;stroke:#2e3436;stroke-opacity:1"
       id="path2471"
       sodipodi:cx="37.6875"
       sodipodi:cy="22.828125"
       sodipodi:rx="4.03125"
       sodipodi:ry="3.140625"
       d="m 41.71875,22.828125 a 4.03125,3.140625 0 1 1 -8.0625,0 4.03125,3.140625 0 1 1 8.0625,0 z"
       transform="matrix(4.3742112,0,0,9.33547,-11.341317,-198.44401)" />
    <rect
       style="fill:#3465a4;fill-opacity:1;stroke:#2e3436;stroke-width:5.82935905;stroke-opacity:1"
       id="rect2459"
       width="94.577621"
       height="105.64059"
       x="47.750862"
       y="-75.319786" />
    <path
       style="opacity:0.53879311;fill:#b1c959;fill-opacity:1;stroke:none"
       d="m 50.000866,-72.694786 c 14.787533,8 7.149093,144.249996 52.071524,45 -67.557826,-34.75 -3.012675,-60.875 17.03094,-19.5 l 20.49874,32.1953 1.22642,44.195296 -90.47722,1.125 -0.350404,-103.015596 z"
       id="rect2505"
       sodipodi:nodetypes="ccccccc"
       inkscape:connector-curvature="0" />
    <path
       sodipodi:type="arc"
       style="fill:#c4a000;fill-opacity:1;stroke:#2e3436;stroke-opacity:1"
       id="path2461"
       sodipodi:cx="15.609375"
       sodipodi:cy="29.765625"
       sodipodi:rx="2.765625"
       sodipodi:ry="2.671875"
       d="m 18.375,29.765625 a 2.765625,2.671875 0 1 1 -5.53125,0 2.765625,2.671875 0 1 1 5.53125,0 z"
       transform="matrix(5.6995928,0,0,5.9620796,-40.949049,-144.07001)" />
    <path
       sodipodi:type="arc"
       style="fill:#c4a000;fill-opacity:1;stroke:#2e3436;stroke-opacity:1"
       id="path2465"
       sodipodi:cx="15.609375"
       sodipodi:cy="29.765625"
       sodipodi:rx="2.765625"
       sodipodi:ry="2.671875"
       d="m 18.375,29.765625 a 2.765625,2.671875 0 1 1 -5.53125,0 2.765625,2.671875 0 1 1 5.53125,0 z"
       transform="matrix(5.6995928,0,0,5.9620796,-7.0186594,-140.9816)" />
    <path
       sodipodi:type="arc"
       style="fill:#c4a000;fill-opacity:1;stroke:#2e3436;stroke-opacity:1"
       id="path2467"
       sodipodi:cx="15.609375"
       sodipodi:cy="29.765625"
       sodipodi:rx="2.765625"
       sodipodi:ry="2.671875"
       d="m 18.375,29.765625 a 2.765625,2.671875 0 1 1 -5.53125,0 2.765625,2.671875 0 1 1 5.53125,0 z"
       transform="matrix(5.6995928,0,0,5.9620796,26.644563,-139.1066)" />
    <path
       sodipodi:type="arc"
       style="fill:#c4a000;fill-opacity:1;stroke:#2e3436;stroke-opacity:1"
       id="path2469"
       sodipodi:cx="15.609375"
       sodipodi:cy="29.765625"
       sodipodi:rx="2.765625"
       sodipodi:ry="2.671875"
       d="m 18.375,29.765625 a 2.765625,2.671875 0 1 1 -5.53125,0 2.765625,2.671875 0 1 1 5.53125,0 z"
       transform="matrix(5.6995928,0,0,5.9620796,60.092119,-145.84238)" />
    <path
       transform="matrix(5.453736,1.6559356,-0.9982124,3.2875592,-7.3989614,-97.05936)"
       d="m 18.375,29.765625 a 2.765625,2.671875 0 1 1 -5.53125,0 2.765625,2.671875 0 1 1 5.53125,0 z"
       sodipodi:ry="2.671875"
       sodipodi:rx="2.765625"
       sodipodi:cy="29.765625"
       sodipodi:cx="15.609375"
       id="path3278"
       style="opacity:0.50431064;fill:#fce94f;fill-opacity:1;stroke:none"
       sodipodi:type="arc" />
    <path
       transform="matrix(5.6995928,0,0,3.435764,-7.0016614,-72.377128)"
       d="m 18.375,29.765625 a 2.765625,2.671875 0 1 1 -5.53125,0 2.765625,2.671875 0 1 1 5.53125,0 z"
       sodipodi:ry="2.671875"
       sodipodi:rx="2.765625"
       sodipodi:cy="29.765625"
       sodipodi:cx="15.609375"
       id="path3280"
       style="opacity:0.50431064;fill:#fce94f;fill-opacity:1;stroke:none"
       sodipodi:type="arc" />
    <path
       transform="matrix(5.6995928,0,0,3.435764,27.498339,-70.502128)"
       d="m 18.375,29.765625 a 2.765625,2.671875 0 1 1 -5.53125,0 2.765625,2.671875 0 1 1 5.53125,0 z"
       sodipodi:ry="2.671875"
       sodipodi:rx="2.765625"
       sodipodi:cy="29.765625"
       sodipodi:cx="15.609375"
       id="path3282"
       style="opacity:0.50431064;fill:#fce94f;fill-opacity:1;stroke:none"
       sodipodi:type="arc" />
    <path
       transform="matrix(5.0288652,-2.6825124,1.6170416,3.0314436,22.460723,-21.844942)"
       d="m 18.375,29.765625 a 2.765625,2.671875 0 1 1 -5.53125,0 2.765625,2.671875 0 1 1 5.53125,0 z"
       sodipodi:ry="2.671875"
       sodipodi:rx="2.765625"
       sodipodi:cy="29.765625"
       sodipodi:cx="15.609375"
       id="path3284"
       style="opacity:0.50431064;fill:#fce94f;fill-opacity:1;stroke:none"
       sodipodi:type="arc" />
  </g>
</svg>
