<?xml version="1.0" encoding="UTF-8" standalone="no"?>
<!-- Created with Inkscape (http://www.inkscape.org/) -->

<svg
   xmlns:svg="http://www.w3.org/2000/svg"
   xmlns="http://www.w3.org/2000/svg"
   xmlns:xlink="http://www.w3.org/1999/xlink"
   version="1.1"
   width="16"
   height="16"
   id="svg2816">
  <defs
     id="defs2818">
    <marker
       refX="0"
       refY="0"
       orient="auto"
       id="DotS"
       style="overflow:visible">
      <path
         d="m -2.5,-1 c 0,2.76 -2.24,5 -5,5 -2.76,0 -5,-2.24 -5,-5 0,-2.76 2.24,-5 5,-5 2.76,0 5,2.24 5,5 z"
         transform="matrix(0.2,0,0,0.2,1.48,0.2)"
         id="path3971"
         style="fill-rule:evenodd;stroke:#000000;stroke-width:1pt;marker-start:none;marker-end:none" />
    </marker>
    <marker
       refX="0"
       refY="0"
       orient="auto"
       id="DotL"
       style="overflow:visible">
      <path
         d="m -2.5,-1 c 0,2.76 -2.24,5 -5,5 -2.76,0 -5,-2.24 -5,-5 0,-2.76 2.24,-5 5,-5 2.76,0 5,2.24 5,5 z"
         transform="matrix(0.8,0,0,0.8,5.92,0.8)"
         id="path3965"
         style="fill-rule:evenodd;stroke:#000000;stroke-width:1pt;marker-start:none;marker-end:none" />
    </marker>
    <linearGradient
       id="linearGradient4694">
      <stop
         id="stop4696"
         style="stop-color:#ff6423;stop-opacity:1"
         offset="0" />
      <stop
         id="stop4704"
         style="stop-color:#ff9823;stop-opacity:1"
         offset="0.69999999" />
      <stop
         id="stop4698"
         style="stop-color:#ffcc23;stop-opacity:1"
         offset="1" />
    </linearGradient>
    <marker
       refX="0"
       refY="0"
       orient="auto"
       id="Arrow1Send"
       style="overflow:visible">
      <path
         d="M 0,0 5,-5 -12.5,0 5,5 0,0 z"
         transform="matrix(-0.2,0,0,-0.2,-1.2,0)"
         id="path3918"
         style="fill-rule:evenodd;stroke:#000000;stroke-width:1pt;marker-start:none" />
    </marker>
    <marker
       refX="0"
       refY="0"
       orient="auto"
       id="Arrow1Mend"
       style="overflow:visible">
      <path
         d="M 0,0 5,-5 -12.5,0 5,5 0,0 z"
         transform="matrix(-0.4,0,0,-0.4,-4,0)"
         id="path3912"
         style="fill-rule:evenodd;stroke:#000000;stroke-width:1pt;marker-start:none" />
    </marker>
    <linearGradient
       id="linearGradient3600">
      <stop
         id="stop3602"
         style="stop-color:#b6b800;stop-opacity:1"
         offset="0" />
      <stop
         id="stop3604"
         style="stop-color:#ffbd12;stop-opacity:1"
         offset="1" />
    </linearGradient>
    <marker
       refX="0"
       refY="0"
       orient="auto"
       id="Arrow1Send-9"
       style="overflow:visible">
      <path
         d="M 0,0 5,-5 -12.5,0 5,5 0,0 z"
         transform="matrix(-0.2,0,0,-0.2,-1.2,0)"
         id="path3918-8"
         style="fill-rule:evenodd;stroke:#000000;stroke-width:1pt;marker-start:none" />
    </marker>
    <radialGradient
       cx="7.5683169"
       cy="8.1163368"
       r="3.6039605"
       fx="7.5683169"
       fy="8.1163368"
       id="radialGradient4702-6"
       xlink:href="#linearGradient4694-0"
       gradientUnits="userSpaceOnUse"
       gradientTransform="matrix(1,0,0,1.0875,0,-0.71017932)" />
    <linearGradient
       id="linearGradient4694-0">
      <stop
         id="stop4696-4"
         style="stop-color:#ff6423;stop-opacity:1"
         offset="0" />
      <stop
         id="stop4704-3"
         style="stop-color:#ff9823;stop-opacity:1"
         offset="0.69999999" />
      <stop
         id="stop4698-1"
         style="stop-color:#ffcc23;stop-opacity:1"
         offset="1" />
    </linearGradient>
    <marker
       refX="0"
       refY="0"
       orient="auto"
       id="DotSH"
       style="overflow:visible">
      <path
         d="m -2.5,-1 c 0,2.76 -2.24,5 -5,5 -2.76,0 -5,-2.24 -5,-5 0,-2.76 2.24,-5 5,-5 2.76,0 5,2.24 5,5 z"
         transform="matrix(0.2,0,0,0.2,1.48,0.2)"
         id="path5613"
         style="fill:#ff45f3;fill-rule:evenodd;stroke:#ff45f3;stroke-width:1pt;marker-start:none;marker-end:none" />
    </marker>
    <marker
       refX="0"
       refY="0"
       orient="auto"
       id="Arrow1Mends"
       style="overflow:visible">
      <path
         d="M 0,0 5,-5 -12.5,0 5,5 0,0 z"
         transform="matrix(-0.4,0,0,-0.4,-4,0)"
         id="path5616"
         style="fill:#ff45f3;fill-rule:evenodd;stroke:#ff45f3;stroke-width:1pt;marker-start:none" />
    </marker>
  </defs>
  <g
     id="layer1">
    <text
       x="-0.11408105"
       y="18.259459"
       id="text5758"
       xml:space="preserve"
       style="font-size:17.90780067px;font-style:normal;font-variant:normal;font-weight:normal;font-stretch:normal;fill:#1aba00;fill-opacity:1;stroke:none;font-family:Linux Libertine;-inkscape-font-specification:Bitstream Charter"><tspan
         x="-0.11408105"
         y="18.259459"
         id="tspan5760">*</tspan></text>
    <text
       x="9.2879972"
       y="18.218214"
       id="text5758-6"
       xml:space="preserve"
       style="font-size:17.90780067px;font-style:normal;font-variant:normal;font-weight:normal;font-stretch:normal;fill:#1aba00;fill-opacity:1;stroke:none;font-family:Linux Libertine;-inkscape-font-specification:Bitstream Charter"><tspan
         x="9.2879972"
         y="18.218214"
         id="tspan5760-9">*</tspan></text>
    <text
       x="5.3035254"
       y="13.169617"
       id="text5787"
       xml:space="preserve"
       style="font-size:16.73012543px;font-style:normal;font-variant:normal;font-weight:normal;font-stretch:normal;fill:#3bb196;fill-opacity:1;stroke:none;font-family:Linux Libertine;-inkscape-font-specification:Bitstream Charter"><tspan
         x="5.3035254"
         y="13.169617"
         id="tspan5789">/</tspan></text>
  </g>
</svg>
