<?xml version="1.0" encoding="UTF-8" standalone="no"?>
<!-- Created with Inkscape (http://www.inkscape.org/) -->

<svg
   xmlns:dc="http://purl.org/dc/elements/1.1/"
   xmlns:cc="http://creativecommons.org/ns#"
   xmlns:rdf="http://www.w3.org/1999/02/22-rdf-syntax-ns#"
   xmlns:svg="http://www.w3.org/2000/svg"
   xmlns="http://www.w3.org/2000/svg"
   xmlns:xlink="http://www.w3.org/1999/xlink"
   version="1.1"
   width="32"
   height="32"
   id="svg3455">
  <defs
     id="defs3457">
    <marker
       refX="0"
       refY="0"
       orient="auto"
       id="Arrow1Send"
       style="overflow:visible">
      <path
         d="M 0,0 5,-5 -12.5,0 5,5 0,0 z"
         transform="matrix(-0.2,0,0,-0.2,-1.2,0)"
         id="path4774"
         style="fill-rule:evenodd;stroke:#000000;stroke-width:1pt;marker-start:none" />
    </marker>
    <linearGradient
       id="linearGradient4535">
      <stop
         id="stop4537"
         style="stop-color:#a7ff00;stop-opacity:1"
         offset="0" />
      <stop
         id="stop4539"
         style="stop-color:#c0ff00;stop-opacity:0"
         offset="1" />
    </linearGradient>
    <linearGradient
       x1="616.77844"
       y1="196.66803"
       x2="626.77991"
       y2="195.63522"
       id="linearGradient4008"
       xlink:href="#linearGradient5578"
       gradientUnits="userSpaceOnUse"
       gradientTransform="matrix(1.7471392,0,0,1.7471392,-1051.8754,-327.89111)" />
    <linearGradient
       id="linearGradient5578">
      <stop
         id="stop5580"
         style="stop-color:#ff0000;stop-opacity:1"
         offset="0" />
      <stop
         id="stop5582"
         style="stop-color:#ff0000;stop-opacity:0"
         offset="1" />
    </linearGradient>
    <linearGradient
       x1="616.77844"
       y1="196.66803"
       x2="626.77991"
       y2="195.63522"
       id="linearGradient3585"
       xlink:href="#linearGradient5578"
       gradientUnits="userSpaceOnUse"
       gradientTransform="translate(-0.98799972,1.0328021)" />
  </defs>
  <metadata
     id="metadata3460">
    <rdf:RDF>
      <cc:Work
         rdf:about="">
        <dc:format>image/svg+xml</dc:format>
        <dc:type
           rdf:resource="http://purl.org/dc/dcmitype/StillImage" />
        <dc:title></dc:title>
      </cc:Work>
    </rdf:RDF>
  </metadata>
  <g
     id="layer1">
    <text
       x="-0.17767923"
       y="23.573336"
       id="text4489"
       xml:space="preserve"
       style="font-size:30.50932121px;font-style:italic;font-variant:normal;font-weight:normal;font-stretch:normal;line-height:125%;letter-spacing:0px;word-spacing:0px;fill:#848484;fill-opacity:1;stroke:none;font-family:Linux Libertine O;-inkscape-font-specification:Sans Italic"><tspan
         x="-0.17767923"
         y="23.573336"
         id="tspan4491"><tspan
           id="tspan4495"
           style="font-style:normal;fill:#848484;fill-opacity:1;-inkscape-font-specification:Linux Libertine O">{  }</tspan></tspan></text>
    <path
       d="m 17.503436,11.638862 a 4.5098138,4.9116783 0 1 1 -9.019628,0 4.5098138,4.9116783 0 1 1 9.019628,0 z"
       id="path4516"
       style="fill:#44c452;fill-opacity:1" />
    <path
       d="m 17.503436,11.638862 a 4.5098138,4.9116783 0 1 1 -9.019628,0 4.5098138,4.9116783 0 1 1 9.019628,0 z"
       transform="matrix(0.80198021,0,0,0.80198021,1.8139164,16.137001)"
       id="path4516-9"
       style="fill:#bac444;fill-opacity:1" />
    <path
       d="m 17.503436,11.638862 a 4.5098138,4.9116783 0 1 1 -9.019628,0 4.5098138,4.9116783 0 1 1 9.019628,0 z"
       transform="matrix(0.80198021,0,0,0.80198021,9.4939954,10.074106)"
       id="path4516-9-9"
       style="fill:#c45e44;fill-opacity:1" />
    <path
       d="m 17.503436,11.638862 a 4.5098138,4.9116783 0 1 1 -9.019628,0 4.5098138,4.9116783 0 1 1 9.019628,0 z"
       transform="matrix(0.72277229,0,0,0.72277229,11.952045,-1.5639295)"
       id="path4516-9-9-8"
       style="fill:#44b6c4;fill-opacity:1" />
  </g>
</svg>
