<?xml version="1.0" encoding="UTF-8" standalone="no"?>
<!-- Created with Inkscape (http://www.inkscape.org/) -->
<svg xmlns:dc="http://purl.org/dc/elements/1.1/" xmlns:cc="http://web.resource.org/cc/" xmlns:rdf="http://www.w3.org/1999/02/22-rdf-syntax-ns#" xmlns:svg="http://www.w3.org/2000/svg" xmlns="http://www.w3.org/2000/svg" xmlns:xlink="http://www.w3.org/1999/xlink" xmlns:sodipodi="http://sodipodi.sourceforge.net/DTD/sodipodi-0.dtd" xmlns:inkscape="http://www.inkscape.org/namespaces/inkscape" width="300" height="630" id="svg2" sodipodi:version="0.32" inkscape:version="0.45" version="1.0" sodipodi:docbase="C:\Documents and Settings\Bogdan\Desktop" sodipodi:docname="leonidas.svg" inkscape:output_extension="org.inkscape.output.svg.inkscape" sodipodi:modified="true">
  <defs id="defs4">
    <linearGradient inkscape:collect="always" id="linearGradient12006">
      <stop style="stop-color:#ffffff;stop-opacity:1;" offset="0" id="stop12008"/>
      <stop style="stop-color:#ffffff;stop-opacity:0;" offset="1" id="stop12010"/>
    </linearGradient>
    <linearGradient inkscape:collect="always" xlink:href="#linearGradient12006" id="linearGradient12012" x1="36.987934" y1="187.25449" x2="175.36887" y2="318.51859" gradientUnits="userSpaceOnUse" gradientTransform="translate(-1.42857, -1.78571)"/>
    <filter inkscape:collect="always" id="filter19826">
      <feGaussianBlur inkscape:collect="always" stdDeviation="3.2157413" id="feGaussianBlur19828"/>
    </filter>
    <filter inkscape:collect="always" id="filter20803">
      <feGaussianBlur inkscape:collect="always" stdDeviation="2.2419244" id="feGaussianBlur20805"/>
    </filter>
    <filter inkscape:collect="always" id="filter21780">
      <feGaussianBlur inkscape:collect="always" stdDeviation="0.74885058" id="feGaussianBlur21782"/>
    </filter>
    <filter inkscape:collect="always" id="filter22773">
      <feGaussianBlur inkscape:collect="always" stdDeviation="3.3324295" id="feGaussianBlur22775"/>
    </filter>
    <filter inkscape:collect="always" id="filter24749">
      <feGaussianBlur inkscape:collect="always" stdDeviation="1.3713536" id="feGaussianBlur24751"/>
    </filter>
    <filter inkscape:collect="always" id="filter25726">
      <feGaussianBlur inkscape:collect="always" stdDeviation="3.6088253" id="feGaussianBlur25728"/>
    </filter>
    <linearGradient inkscape:collect="always" xlink:href="#linearGradient12006" id="linearGradient25742" gradientUnits="userSpaceOnUse" gradientTransform="translate(-1.42857, -1.78571)" x1="36.273647" y1="185.82591" x2="175.36887" y2="318.51859"/>
  </defs>
  <sodipodi:namedview id="base" pagecolor="#ffffff" bordercolor="#666666" borderopacity="1.0" gridtolerance="10000" guidetolerance="10" objecttolerance="10" inkscape:pageopacity="0.0" inkscape:pageshadow="2" inkscape:zoom="0.7" inkscape:cx="298.67904" inkscape:cy="346.54366" inkscape:document-units="px" inkscape:current-layer="layer1" inkscape:window-width="1280" inkscape:window-height="923" inkscape:window-x="-4" inkscape:window-y="-4" width="300px" height="630px" showguides="true" inkscape:guide-bbox="true"/>
  <metadata id="metadata7">
    <rdf:RDF>
      <cc:Work rdf:about="">
        <dc:format>image/svg+xml</dc:format>
        <dc:type rdf:resource="http://purl.org/dc/dcmitype/StillImage"/>
        <dc:title>Leonidas</dc:title>
        <dc:source>http://www.gripdpulse.com</dc:source>
        <dc:date>2007-03-25</dc:date>
        <dc:creator>
          <cc:Agent>
            <dc:title>Bogdan Costea</dc:title>
          </cc:Agent>
        </dc:creator>
        <cc:license rdf:resource="http://web.resource.org/cc/PublicDomain"/>
        <dc:subject>
          <rdf:Bag>
            <rdf:li>Spartan</rdf:li>
            <rdf:li>helmet</rdf:li>
            <rdf:li>Sparta</rdf:li>
            <rdf:li>Greece</rdf:li>
            <rdf:li>Leonidas</rdf:li>
          </rdf:Bag>
        </dc:subject>
        <dc:description>Spartan Helmet</dc:description>
      </cc:Work>
      <cc:License rdf:about="http://web.resource.org/cc/PublicDomain">
        <cc:permits rdf:resource="http://web.resource.org/cc/Reproduction"/>
        <cc:permits rdf:resource="http://web.resource.org/cc/Distribution"/>
        <cc:permits rdf:resource="http://web.resource.org/cc/DerivativeWorks"/>
      </cc:License>
    </rdf:RDF>
  </metadata>
  <g inkscape:label="Layer 1" inkscape:groupmode="layer" id="layer1" style="display:inline">
    <g id="g25730" transform="translate(-46.2857, -34.2857)">
      <path sodipodi:nodetypes="ccccccccccc" id="path2221" d="M 74.285714,51.290752 C 74.285714,51.290752 135.71429,142.71932 127.85714,197.71932 C 144.28572,195.57646 142.85714,195.21932 142.85714,195.21932 C 142.85714,195.21932 159.64286,208.79075 158.92857,238.43361 C 170.71429,238.43361 177.14286,239.50504 177.14286,239.50504 C 177.14286,239.50504 200.29586,227.91802 242.08158,245.77516 C 243.86729,241.13231 250.76239,216.30695 261.42857,227.36218 C 305.71429,260.57646 285.71429,638.07647 285.71429,638.07647 C 285.71429,638.07647 286.70195,659.79601 300,655.93361 C 292.76735,387.32353 418.92767,107.55342 167.14286,47.362181 C 81.001844,37.849296 73.928572,51.290752 74.285714,51.290752 z " style="fill:#ccc898;fill-opacity:1;fill-rule:evenodd;stroke:#000000;stroke-width:1px;stroke-linecap:butt;stroke-linejoin:miter;stroke-opacity:1"/>
      <path sodipodi:nodetypes="cssscccsscsc" id="path16861" d="M 82.5,52.719324 C 83.928572,53.076467 133.92857,144.1479 134.64286,182.36218 C 134.82257,191.97687 135,188.79075 137.5,188.79075 C 140,188.79075 143.83986,187.43692 145.35714,189.14789 C 162.14286,208.07646 163.92857,231.29075 163.92857,231.29075 C 176.04574,224.84271 218.20425,229.39138 237.5,235.93361 C 238.21428,244.1479 247.14286,223.07646 247.14286,223.07646 C 247.14286,223.07646 265.35714,211.29076 273.21429,234.1479 C 284.23462,266.20702 292.14286,297.36218 295.71429,304.1479 C 299.28571,310.93361 318.57143,350.57647 318.57143,350.57647 C 318.57143,350.57647 323.06354,208.37717 301.78571,161.64789 C 297.10821,151.37541 261.42857,37.362181 82.5,52.719324 z " style="fill:#003500;fill-opacity:0.35185188;fill-rule:evenodd;stroke:#550000;stroke-width:1px;stroke-linecap:butt;stroke-linejoin:miter;stroke-opacity:0.39506172"/>
      <path id="path3200" d="M 67.680221,416.97623 C 67.680221,420.51177 64.649763,444.75543 65.154839,450.31127 C 65.659915,455.8671 65.659915,465.46355 66.670068,471.01939 C 67.680221,476.57523 68.185297,486.67676 68.185297,491.22244 C 68.185297,495.76813 68.185297,503.84935 68.185297,511.93057 C 68.185297,520.01179 68.185297,517.48641 68.185297,529.60824 C 68.185297,541.73007 66.164992,548.80114 66.164992,556.37728 C 66.164992,563.95343 65.659915,567.99404 65.659915,572.03465 C 65.659915,576.07526 69.195449,585.16663 69.195449,585.16663 C 69.195449,585.16663 71.215754,576.07526 74.246212,562.94327 C 77.27667,549.81129 71.720831,546.78083 80.812204,538.19454 C 89.903577,529.60824 85.35789,525.06255 93.944187,526.57778 C 102.53048,528.09301 107.07617,533.64885 111.11678,536.17423 C 115.15739,538.69961 119.198,538.69961 121.72338,539.70977 C 124.24876,540.71992 132.83506,545.77068 140.91628,546.78083 C 148.9975,547.79099 184.85792,555.36713 192.93914,555.36713 C 201.02036,555.36713 207.08127,555.36713 210.61681,555.36713 C 214.15234,555.36713 228.79955,555.36713 231.32493,555.36713 C 233.85031,555.36713 239.40615,555.36713 245.46707,555.36713 C 251.52798,555.36713 275.77165,556.37728 278.8021,556.37728 C 281.83256,556.37728 324.25897,553.8519 324.25897,553.8519 C 324.25897,553.8519 282.33764,461.42294 261.62951,435.66405 C 240.92138,409.90516 235.36554,405.35948 224.25387,400.30871 C 213.14219,395.25795 204.05081,387.68181 192.43406,384.65135 C 180.81731,381.62089 172.73609,374.54982 151.52288,374.54982 C 130.30968,374.54982 125.76399,370.00414 110.10663,374.54982 C 94.449263,379.09551 93.43911,370.00414 86.368043,383.6412 C 79.296975,397.27826 76.266517,403.84425 73.23606,409.40009 C 70.205602,414.95593 68.690373,417.48131 67.680221,416.97623 z " style="fill:#000000;fill-opacity:1;fill-rule:evenodd;stroke:#000000;stroke-width:1px;stroke-linecap:butt;stroke-linejoin:miter;stroke-opacity:1"/>
      <path sodipodi:nodetypes="ccccccssccccccccccccccccssssssssssscssscscscscccccsssscc" id="path3196" d="M 200.03125,235.78125 C 193.58975,235.73937 186.84944,236.01239 179.8125,236.65625 C 93.034262,238.07885 74.834962,346.78458 70.950893,363.10714 C 68.256128,368.88336 62.445394,408.54184 61.066964,418.4375 C 61.342637,468.37054 62.179588,522.42938 58.5625,573.0625 C 57.664028,588.45596 57.731904,603.84343 56.0625,619.15625 C 55.705357,627.72767 56.790177,629.15626 58.21875,634.15625 C 59.647321,639.15625 64.638394,644.86157 66.78125,642.71875 C 68.924107,640.57589 70,616.30357 72.5,602.375 C 74.524397,556.70169 73.398084,509.94688 72.5,463.4375 C 67.942447,450.26617 67.31003,422.99433 79.28125,413.0625 C 84.333161,410.76614 90.072693,417.18372 92.147321,420.9375 C 96.593071,444.49884 93.596146,437.72989 93.933036,460.91964 C 91.433036,478.77678 88.933035,504.16072 88.933036,509.875 C 86.976159,515.8724 89.209149,517.75049 90.34375,524.5 C 93.915179,527 89.98661,520.56249 96.058036,523.0625 C 99.439991,518.84475 101.32184,517.59809 102.5,511.65179 C 103.21429,503.4375 104.27232,499.85714 105.70089,495.92857 C 107.58568,488.56757 108.9375,479.93874 108.9375,472.37054 C 108.9467,464.6165 110.91941,458.68653 111.0625,450.9375 C 111.20896,444.74779 110.75093,438.55778 111.0625,432.375 C 118.02299,417.94446 133.76072,414.01351 148.21875,411.28125 C 149.64732,411.28125 155.36161,410.58483 157.86161,411.65625 C 167.25056,369.3435 162.30611,414.73683 166.0625,412.375 C 168.20536,410.94643 169.27678,411.63841 171.0625,411.28125 C 172.84821,410.92411 176.07143,412.375 177.5,412.375 C 178.92857,412.375 180.34821,413.08483 183.5625,414.15625 C 186.77678,415.22767 186.41964,415.22768 188.5625,416.65625 C 190.70536,418.08482 191.43303,418.80357 193.21875,419.875 C 195.00446,420.94643 196.43303,421.30357 198.21875,422.375 C 200.00446,423.44643 200.35268,424.49106 201.78125,425.5625 C 203.20983,426.63393 202.85714,426.64286 205,429.5 C 207.14286,432.35714 206.43303,430.92857 208.21875,434.5 C 210.00446,438.07143 209.29464,436.27677 211.4375,438.0625 C 213.58036,439.84821 214.27678,440.21428 213.5625,442 C 212.84821,443.78571 210.34374,442.375 210.34375,442.375 C 210.34375,442.375 208.20536,444.15178 206.0625,445.9375 C 203.91964,447.72321 204.28571,448.44643 202.5,449.875 C 200.71429,451.30357 199.65179,452.01786 196.4375,452.375 C 193.22322,452.73214 188.57143,455.56249 185,455.5625 C 181.60829,456.91026 169.02438,459.32144 165.22472,459.98252 C 161.42506,460.6436 162.12394,470.26887 157.79781,479.61622 C 154.54312,470.035 156.62056,459.46158 152.72089,459.011 C 148.82121,458.56043 142.87299,457.87556 139.28125,457 C 134.28125,455.57143 130.71875,456.28126 130.71875,456.28125 C 131.79017,456.28125 131.43303,462.0134 130.71875,466.65625 C 127.69787,475.67578 126.99087,484.39155 127.15625,493.78125 C 127.04514,523.79541 126.15984,553.77842 125.34375,583.78125 C 125.34375,585.92411 119.29464,645.58929 123.9375,649.875 C 169.93067,631.94552 231.96349,586.96854 267.34375,559.34375 C 268.54423,560.34631 269.81994,561.07115 271.21875,561.4375 C 292.43195,566.99333 325.77777,560.9375 332.34375,560.9375 C 338.90974,560.9375 336.39102,555.8633 337.90625,550.8125 C 339.42148,545.76174 326.2949,533.1312 318.71875,516.96875 C 311.1426,500.80631 309.62739,470.01113 318.71875,412.9375 C 327.19709,312.47087 296.65379,236.4094 200.03125,235.78125 z " style="fill:#917445;fill-opacity:1;fill-rule:evenodd;stroke:#000000;stroke-width:1px;stroke-linecap:butt;stroke-linejoin:miter;stroke-opacity:1"/>
      <path sodipodi:nodetypes="cccsccscssssc" id="path10042" d="M 170.71428,239.50504 C 170.71428,239.50504 273.57143,215.93361 304.28572,300.93361 C 322.55696,349.83611 321.32709,394.64394 312.85714,445.21932 C 311.38564,452.20896 305,503.79075 320.71429,525.21933 C 327.16198,534.01163 336.42858,555.93361 336.42858,555.93361 C 336.42858,555.93361 235.71238,561.02556 278.57142,545.21932 C 299.32398,533.50812 300.93113,535.47241 300.20727,510.36449 C 299.48342,485.25658 296.42857,433.07646 293.57143,418.79075 C 278.57143,393.79075 247.85715,404.50504 247.85715,382.36218 C 247.85715,360.21932 228.57143,377.36219 207.14286,346.6479 C 185.71429,315.93361 216.42857,300.93361 194.28572,290.93361 C 172.14286,280.93361 187.85715,264.50504 180.71429,258.07647 C 173.57143,251.6479 144.28571,239.50504 170.71428,239.50504 z " style="fill:#000000;fill-opacity:0.0432099;fill-rule:evenodd;stroke:none;stroke-width:1px;stroke-linecap:butt;stroke-linejoin:miter;stroke-opacity:1;filter:url(#filter20803)"/>
      <path sodipodi:nodetypes="csscsssc" id="path11013" d="M 170,237.36218 C 183.57143,246.64789 205.23719,244.84307 233.57143,260.93361 C 256.1973,273.78246 255,288.79075 264.28571,298.07647 C 273.57143,307.36218 285.71429,328.79075 285.71429,328.79075 C 285.71429,328.79075 288.57143,313.79075 288.57143,308.79075 C 288.57143,303.79075 285,288.79075 281.42857,281.6479 C 277.85714,274.50504 267.14285,255.21933 262.85714,253.07647 C 258.57142,250.93361 240.71428,231.64789 170,237.36218 z " style="fill:#000000;fill-opacity:0.04938271;fill-rule:evenodd;stroke:none;stroke-width:1px;stroke-linecap:butt;stroke-linejoin:miter;stroke-opacity:1;filter:url(#filter22773)"/>
      <path sodipodi:nodetypes="csssssssscsssccc" id="path11033" d="M 160.44094,244.05631 C 160.44094,244.05631 170.00652,248.15126 180.82782,257.95335 C 189.37448,265.69504 176.24624,274.90186 188.36807,288.03385 C 200.4899,301.16583 204.1576,295.38929 202.09179,301.26735 C 199.12967,309.69575 199.00005,335.15388 201.02036,340.20464 C 203.04066,345.2554 215.16249,353.33662 216.17264,360.40769 C 217.1828,367.47876 219.2031,379.60059 214.15234,376.57013 C 209.10158,373.53967 217.1828,384.65135 194.95944,380.61074 C 172.73609,376.57013 150.51273,368.48891 142.43151,357.37723 C 134.35029,346.26555 127.27922,331.11327 127.27922,331.11327 C 127.27922,331.11327 134.35029,310.91021 117.1777,334.14372 C 100.0051,357.37723 102.02541,352.32647 91.923882,365.45845 C 81.822356,378.59043 79.802051,380.61074 72.730983,386.67166 C 65.659915,392.73257 68.690373,378.59043 68.690373,378.59043 C 68.690373,378.59043 82.617347,274.03031 141.36008,245.90331 C 185.95908,228.56792 154.66538,245.48489 160.44094,244.05631 z " style="fill:#fff8d5;fill-opacity:0.09259261;fill-rule:evenodd;stroke:none;stroke-width:1px;stroke-linecap:butt;stroke-linejoin:miter;stroke-opacity:1;filter:url(#filter21780)"/>
      <path sodipodi:nodetypes="ccccssccsccsscccssscsscscscscc" id="path3194" d="M 120.6875,304.40625 C 104.91354,305.2756 70.718749,365.93749 70.71875,365.9375 C 70.71875,365.9375 62.204511,402.33527 61.232142,418.26786 L 61.4375,530.9375 C 61.437501,530.93752 57.5,627.34821 60.357143,631.63393 C 63.214286,635.91963 64.691686,641.27195 64.991071,631.99107 C 65.348217,620.91963 68.928571,585.5625 68.928571,585.5625 L 70.004464,466.29911 C 70.004463,466.29912 65.008929,454.49554 66.4375,438.78125 C 67.866069,423.06698 74.28125,411.65625 74.28125,411.65625 L 76.0625,407.34375 C 88.517565,402.04939 97.168598,416.94215 98.5625,424.5 C 99.902212,431.76402 92.293866,495.22768 91.40625,510.40625 C 90.518638,525.58482 96.856604,513.2634 99.65625,504.15625 C 99.65625,504.15625 106.4375,454.14731 106.4375,425.21875 C 126.4375,400.21876 157.5,400.56697 157.5,400.56696 C 157.5,400.56696 163.16064,387.77811 164.587,388.09725 C 166.01335,388.4164 165.70542,402.55782 168.19684,403.27553 C 173.17968,404.71094 179.93136,404.52288 187.00669,408.02902 C 201.15736,415.04129 216.60268,426.83035 221.78125,445.9375 C 217.58482,452.27679 209.97293,456.65151 200.91559,459.64774 C 191.85826,462.64397 178.14118,464.26171 168.16294,465.08705 C 163.17382,465.49971 163.67299,475.71428 157.40668,486.51829 C 153.99752,481.96515 153.10861,466.21574 149.62905,466.12904 C 142.66992,465.95563 133.5625,465.21875 133.5625,465.21875 C 133.5625,465.21875 128.12122,626.86681 130.71875,638.0625 C 133.37486,649.51066 295.71875,525.93752 295.71875,525.9375 C 295.71875,525.9375 297.85268,414.5134 284.28125,421.65625 C 269.72958,429.31503 122.15625,304.5 122.15625,304.5 C 121.6875,304.39955 121.19634,304.37821 120.6875,304.40625 z " style="fill:#ffac30;fill-opacity:1;fill-rule:evenodd;stroke:#000000;stroke-width:1px;stroke-linecap:butt;stroke-linejoin:miter;stroke-opacity:1"/>
      <path sodipodi:nodetypes="csssssc" id="path11035" d="M 151.42857,242.36218 C 151.42857,242.36218 99.285711,257.00504 77.14286,342.36218 C 74.675451,351.87365 102.29598,299.6097 116.07143,298.79075 C 143.75596,297.14492 123.21429,306.64789 139.64286,307.71932 C 156.07143,308.79075 175,304.86219 176.42857,296.29076 C 177.85714,287.71933 165.73923,274.53557 171.42857,269.86219 C 231.07143,220.93361 152.49999,243.43361 151.42857,242.36218 z " style="fill:url(#linearGradient25742);fill-opacity:1;fill-rule:evenodd;stroke:none;stroke-width:1px;stroke-linecap:butt;stroke-linejoin:miter;stroke-opacity:1;filter:url(#filter19826)"/>
      <path sodipodi:nodetypes="cssscsscccccccscccssc" id="path12014" d="M 120.35714,312.71932 C 130.35714,320.21932 266.42857,430.57647 275.35714,428.79075 C 284.28571,427.00504 282.14286,421.6479 285,427.36218 C 287.85714,433.07647 293.57143,519.50504 288.92857,523.79075 C 284.28571,528.07647 135.35714,633.79075 135.35714,633.79075 C 135.35714,633.79075 135,471.6479 138.21429,471.6479 C 141.42857,471.6479 144.28571,469.1479 146.42857,471.29075 C 148.57143,473.43361 151.78571,470.21932 151.78571,470.21932 L 156.78571,486.29075 L 164.28571,471.29075 C 164.28571,471.29075 212.5,472.71933 227.14286,447.71932 C 221.06939,419.75465 191.86556,404.41813 167.14286,397.36218 C 165.71428,387.00504 164.64286,387.71932 164.64286,387.71932 L 160,394.50504 C 160,394.50504 131.07143,396.6479 118.57143,407.36218 C 106.07143,418.07647 103.21428,423.07647 103.21428,423.07647 C 103.21428,423.07647 93.287002,402.36218 85.357143,402.36218 C 69.261505,401.46565 66.696986,420.61504 63.214286,433.07646 C 63.214286,440.93361 63.214286,429.50504 64.285714,420.57647 C 65.357143,411.6479 70.614288,373.06039 75,365.93361 C 92.142858,338.07647 121.07143,312.71932 120.35714,312.71932 z " style="opacity:0.22526317;fill:#5d3400;fill-opacity:0.97530865;fill-rule:evenodd;stroke:none;stroke-width:1px;stroke-linecap:butt;stroke-linejoin:miter;stroke-opacity:1;filter:url(#filter25726)"/>
    </g>
  </g>
</svg>