<?xml version="1.0" encoding="utf-8"?>
<!-- Generator: Adobe Illustrator 15.1.0, SVG Export Plug-In . SVG Version: 6.00 Build 0)  -->
<svg version="1.2" baseProfile="tiny" id="Layer_1" xmlns="http://www.w3.org/2000/svg" xmlns:xlink="http://www.w3.org/1999/xlink"
	 x="0px" y="0px" width="35px" height="35px" viewBox="0 0 35 35" overflow="inherit" xml:space="preserve">
<path fill="#2d2d2d" d="M35,17.502C35,27.167,27.164,35,17.5,35S0,27.167,0,17.502C0,7.833,7.836,0,17.5,0S35,7.833,35,17.502z"/>
<g id="cogwheels">
	<path id="cogwheels_1_" fill="#FFFFFF" d="M22.117,15.097c0.019-0.22,0.03-0.438,0.034-0.659c0-0.224-0.012-0.445-0.03-0.663
		l-1.384-0.351c-0.071-0.458-0.19-0.902-0.35-1.328l1.031-0.991c-0.188-0.401-0.408-0.785-0.657-1.145l-1.379,0.388
		c-0.286-0.356-0.609-0.682-0.964-0.971l0.397-1.376c-0.36-0.25-0.739-0.476-1.141-0.665l-0.999,1.026
		c-0.421-0.165-0.864-0.286-1.322-0.36l-0.344-1.388c-0.216-0.02-0.437-0.033-0.659-0.031c-0.222-0.002-0.443,0.008-0.662,0.027
		L13.34,7.996c-0.458,0.07-0.903,0.19-1.327,0.352l-0.992-1.033c-0.401,0.186-0.783,0.406-1.144,0.656l0.39,1.378
		c-0.359,0.286-0.686,0.61-0.972,0.966L7.919,9.916c-0.251,0.36-0.476,0.741-0.664,1.14l1.025,1
		c-0.166,0.42-0.286,0.863-0.361,1.323L6.531,13.72c-0.018,0.22-0.03,0.438-0.031,0.661c-0.001,0.223,0.009,0.441,0.026,0.659
		l1.385,0.353c0.072,0.461,0.191,0.903,0.353,1.325L7.229,17.71c0.188,0.403,0.408,0.784,0.657,1.144l1.377-0.387
		c0.287,0.357,0.61,0.684,0.967,0.973l-0.399,1.375c0.36,0.252,0.74,0.477,1.139,0.666l1.001-1.025
		c0.42,0.16,0.863,0.285,1.32,0.357l0.341,1.387c0.22,0.021,0.44,0.035,0.663,0.037c0.224,0,0.442-0.014,0.66-0.031l0.353-1.383
		c0.459-0.072,0.904-0.189,1.325-0.35l0.991,1.033c0.402-0.188,0.787-0.406,1.146-0.66l-0.388-1.377
		c0.356-0.285,0.684-0.611,0.973-0.967l1.375,0.398c0.25-0.357,0.477-0.738,0.667-1.138l-1.027-1
		c0.164-0.421,0.287-0.863,0.36-1.321L22.117,15.097z M14.312,17.571c-1.746-0.009-3.156-1.429-3.149-3.175
		c0.006-1.746,1.427-3.156,3.173-3.149c1.747,0.006,3.158,1.427,3.151,3.172C17.478,16.166,16.058,17.577,14.312,17.571z
		 M28.473,23.068l-0.999-0.379c-0.094-0.404-0.243-0.783-0.443-1.131l0.479-0.957c-0.243-0.324-0.523-0.613-0.839-0.871
		l-0.977,0.439c-0.339-0.211-0.71-0.377-1.108-0.482l-0.338-1.016c-0.196-0.027-0.396-0.045-0.602-0.049
		c-0.203-0.006-0.407,0.008-0.605,0.027l-0.375,1c-0.403,0.092-0.781,0.24-1.127,0.439l-0.96-0.479
		c-0.321,0.246-0.614,0.523-0.868,0.836l0.438,0.979c-0.217,0.338-0.379,0.711-0.485,1.111l-1.017,0.34
		c-0.027,0.193-0.047,0.398-0.05,0.602c-0.004,0.207,0.005,0.404,0.025,0.607l1.002,0.375c0.091,0.404,0.24,0.783,0.441,1.127
		l-0.476,0.959c0.241,0.324,0.525,0.617,0.835,0.871l0.979-0.439c0.337,0.213,0.708,0.377,1.107,0.484l0.336,1.014
		c0.198,0.029,0.4,0.045,0.604,0.051c0.206,0.004,0.407-0.006,0.604-0.027l0.379-1c0.4-0.092,0.777-0.24,1.127-0.441l0.956,0.479
		c0.325-0.242,0.619-0.525,0.873-0.838l-0.441-0.977c0.213-0.336,0.379-0.709,0.486-1.111l1.014-0.332
		c0.03-0.201,0.047-0.402,0.051-0.607C28.503,23.469,28.495,23.266,28.473,23.068z M23.511,25.396
		c-1.005-0.021-1.805-0.852-1.783-1.857c0.019-1.006,0.85-1.805,1.856-1.785c1.005,0.02,1.803,0.852,1.784,1.857
		C25.35,24.615,24.518,25.416,23.511,25.396z"/>
</g>
</svg>
