<?xml version="1.0" encoding="utf-8" ?>
<svg baseProfile="tiny" height="864" version="1.2" width="743" xmlns="http://www.w3.org/2000/svg" xmlns:ev="http://www.w3.org/2001/xml-events" xmlns:inkspace="http://www.inkscape.org/namespaces/inkscape" xmlns:xlink="http://www.w3.org/1999/xlink"><title /><desc>Graph of a FSM</desc><defs><filter height="1.504" id="filter_blur" inkspace:collect="always" width="1.1575" x="-0.0788" y="-0.252"><feGaussianBlur id="feGaussianBlur3780" in="SourceGraphic" inkspace:collect="always" stdDeviation="4.2" /></filter></defs><g font-family="DejaVu Sans" font-size="14"><rect fill="#f8f8f8" height="564" rx="10" ry="10" stroke="#888a85" stroke-width="2" width="653" x="30" y="150" /><g transform="translate(230,200)"><g transform="translate(0,0)"><rect fill="black" height="80" rx="10" ry="10" stroke="black" stroke-width="1" style="filter:url(#filter_blur);opacity:0.7;fill-opacity:1" width="228" x="0" y="0" /><rect fill="#faf1e8" height="80" rx="10" ry="10" stroke="black" stroke-width="1" width="228" x="0" y="0" /><text x="18" y="21">ST_DISCONNECTED</text><path d="m 0 28 228 0" stroke="black" stroke-width="1" /><text x="18" y="45">ac_enqueue_tx_data</text><line fill="black" stroke="black" stroke-width="1" x1="0" x2="9" y1="40" y2="40" /><circle cx="9" cy="40" fill="black" r="3" stroke="black" stroke-width="1" /><rect fill="black" height="4" stroke="black" stroke-width="1" width="4" x="226" y="40" /><text x="18" y="69">ac_timeout_disconnected</text><line fill="black" stroke="black" stroke-width="1" x1="0" x2="9" y1="64" y2="64" /><circle cx="9" cy="64" fill="black" r="3" stroke="black" stroke-width="1" /><rect fill="black" height="4" stroke="black" stroke-width="1" width="4" x="226" y="64" /></g><g transform="translate(0,120)"><rect fill="black" height="128" rx="10" ry="10" stroke="black" stroke-width="1" style="filter:url(#filter_blur);opacity:0.7;fill-opacity:1" width="228" x="0" y="0" /><rect fill="#faf1e8" height="128" rx="10" ry="10" stroke="black" stroke-width="1" width="228" x="0" y="0" /><text x="18" y="21">ST_WAIT_CONNECTED</text><path d="m 0 28 228 0" stroke="black" stroke-width="1" /><text x="18" y="45">ac_enqueue_tx_data</text><line fill="black" stroke="black" stroke-width="1" x1="0" x2="9" y1="40" y2="40" /><circle cx="9" cy="40" fill="black" r="3" stroke="black" stroke-width="1" /><rect fill="black" height="4" stroke="black" stroke-width="1" width="4" x="226" y="40" /><text x="18" y="69">ac_connected</text><line fill="black" stroke="black" stroke-width="1" x1="0" x2="9" y1="64" y2="64" /><circle cx="9" cy="64" fill="black" r="3" stroke="black" stroke-width="1" /><rect fill="black" height="4" stroke="black" stroke-width="1" width="4" x="226" y="64" /><text x="18" y="93">ac_disconnected</text><line fill="black" stroke="black" stroke-width="1" x1="0" x2="9" y1="88" y2="88" /><circle cx="9" cy="88" fill="black" r="3" stroke="black" stroke-width="1" /><rect fill="black" height="4" stroke="black" stroke-width="1" width="4" x="226" y="88" /><text x="18" y="117">ac_timeout_wait_connected</text><line fill="black" stroke="black" stroke-width="1" x1="0" x2="9" y1="112" y2="112" /><circle cx="9" cy="112" fill="black" r="3" stroke="black" stroke-width="1" /><rect fill="black" height="4" stroke="black" stroke-width="1" width="4" x="226" y="112" /></g><g transform="translate(0,288)"><rect fill="black" height="176" rx="10" ry="10" stroke="black" stroke-width="1" style="filter:url(#filter_blur);opacity:0.7;fill-opacity:1" width="228" x="0" y="0" /><rect fill="#faf1e8" height="176" rx="10" ry="10" stroke="black" stroke-width="1" width="228" x="0" y="0" /><text x="18" y="21">ST_CONNECTED</text><path d="m 0 28 228 0" stroke="black" stroke-width="1" /><text x="18" y="45">ac_drop</text><line fill="black" stroke="black" stroke-width="1" x1="0" x2="9" y1="40" y2="40" /><circle cx="9" cy="40" fill="black" r="3" stroke="black" stroke-width="1" /><rect fill="black" height="4" stroke="black" stroke-width="1" width="4" x="226" y="40" /><text x="18" y="69">ac_tx_data</text><line fill="black" stroke="black" stroke-width="1" x1="0" x2="9" y1="64" y2="64" /><circle cx="9" cy="64" fill="black" r="3" stroke="black" stroke-width="1" /><rect fill="black" height="4" stroke="black" stroke-width="1" width="4" x="226" y="64" /><text x="18" y="93">ac_disconnected</text><line fill="black" stroke="black" stroke-width="1" x1="0" x2="9" y1="88" y2="88" /><circle cx="9" cy="88" fill="black" r="3" stroke="black" stroke-width="1" /><rect fill="black" height="4" stroke="black" stroke-width="1" width="4" x="226" y="88" /><text x="18" y="117">ac_timeout_data</text><line fill="black" stroke="black" stroke-width="1" x1="0" x2="9" y1="112" y2="112" /><circle cx="9" cy="112" fill="black" r="3" stroke="black" stroke-width="1" /><rect fill="black" height="4" stroke="black" stroke-width="1" width="4" x="226" y="112" /><text x="18" y="141">ac_rx_data</text><line fill="black" stroke="black" stroke-width="1" x1="0" x2="9" y1="136" y2="136" /><circle cx="9" cy="136" fill="black" r="3" stroke="black" stroke-width="1" /><rect fill="black" height="4" stroke="black" stroke-width="1" width="4" x="226" y="136" /><text x="18" y="165">ac_transmit_ready</text><line fill="black" stroke="black" stroke-width="1" x1="0" x2="9" y1="160" y2="160" /><circle cx="9" cy="160" fill="black" r="3" stroke="black" stroke-width="1" /><rect fill="black" height="4" stroke="black" stroke-width="1" width="4" x="226" y="160" /></g></g><text font-size="28" x="230" y="30">CONNEX_FSM</text><g fill="none" stroke="#edd400" stroke-width="4"><path d="M 55 130 L 55 508 Q 55 528 75 528 L 228 528" /><path d="m 220 528 4 0 0 -4 4 4 -4 4 0 -4 z" /></g><text transform="rotate(-45,55,130)" x="55" y="126">EV_DROP</text><g fill="none" stroke="#73d216" stroke-width="4"><path d="M 80 130 L 80 220 Q 80 240 100 240 L 228 240" /><path d="m 220 240 4 0 0 -4 4 4 -4 4 0 -4 z" /><path d="M 80 130 L 80 340 Q 80 360 100 360 L 228 360" /><path d="m 220 360 4 0 0 -4 4 4 -4 4 0 -4 z" /><path d="M 80 130 L 80 532 Q 80 552 100 552 L 228 552" /><path d="m 220 552 4 0 0 -4 4 4 -4 4 0 -4 z" /></g><text transform="rotate(-45,80,130)" x="80" y="126">EV_TX_DATA</text><g fill="none" stroke="#ef2929" stroke-width="4"><path d="M 105 734 L 105 668 Q 105 648 125 648 L 228 648" /><path d="m 220 648 4 0 0 -4 4 4 -4 4 0 -4 z" /></g><text transform="rotate(45,105,734)" x="105" y="747">EV_TRANSMIT_READY</text><g fill="none" stroke="#729fcf" stroke-width="4"><path d="M 130 734 L 130 428 Q 130 408 150 408 L 228 408" /><path d="m 220 408 4 0 0 -4 4 4 -4 4 0 -4 z" /><path d="M 130 734 L 130 596 Q 130 576 150 576 L 228 576" /><path d="m 220 576 4 0 0 -4 4 4 -4 4 0 -4 z" /></g><text transform="rotate(45,130,734)" x="130" y="747">EV_DISCONNECTED</text><g fill="none" stroke="#e9b96e" stroke-width="4"><path d="M 155 734 L 155 644 Q 155 624 175 624 L 228 624" /><path d="m 220 624 4 0 0 -4 4 4 -4 4 0 -4 z" /></g><text transform="rotate(45,155,734)" x="155" y="747">EV_RX_DATA</text><g fill="none" stroke="#fcaf3e" stroke-width="4"><path d="M 180 734 L 180 404 Q 180 384 200 384 L 228 384" /><path d="m 220 384 4 0 0 -4 4 4 -4 4 0 -4 z" /></g><text transform="rotate(45,180,734)" x="180" y="747">EV_CONNECTED</text><g fill="none" stroke="#ad7fa8" stroke-width="4"><path d="M 205 734 L 205 284 Q 205 264 225 264 L 228 264" /><path d="m 220 264 4 0 0 -4 4 4 -4 4 0 -4 z" /><path d="M 205 734 L 205 452 Q 205 432 225 432 L 228 432" /><path d="m 220 432 4 0 0 -4 4 4 -4 4 0 -4 z" /><path d="M 205 734 L 205 620 Q 205 600 225 600 L 228 600" /><path d="m 220 600 4 0 0 -4 4 4 -4 4 0 -4 z" /></g><text transform="rotate(45,205,734)" x="205" y="747">EV_TIMEOUT</text><g fill="none" stroke="#ef2929" stroke-width="4"><path d="M 460 650 L 513 650 Q 533 650 533 630 L 533 130" /><path d="m 533 138 0 -4 -4 0 4 -4 4 4 -4 0 z" /></g><text transform="rotate(-45,533,130)" x="535" y="126">EV_TRANSMIT_READY</text><g fill="none" stroke="#729fcf" stroke-width="4"><path d="M 460 410 L 538 410 Q 558 410 558 390 L 558 130" /><path d="m 558 138 0 -4 -4 0 4 -4 4 4 -4 0 z" /><path d="M 460 578 L 538 578 Q 558 578 558 558 L 558 130" /><path d="m 558 138 0 -4 -4 0 4 -4 4 4 -4 0 z" /></g><text transform="rotate(-45,558,130)" x="560" y="126">EV_DISCONNECTED</text><g fill="none" stroke="#e9b96e" stroke-width="4"><path d="M 460 626 L 563 626 Q 583 626 583 606 L 583 130" /><path d="m 583 138 0 -4 -4 0 4 -4 4 4 -4 0 z" /></g><text transform="rotate(-45,583,130)" x="585" y="126">EV_RX_DATA</text><g fill="none" stroke="#fcaf3e" stroke-width="4"><path d="M 460 386 L 588 386 Q 608 386 608 366 L 608 130" /><path d="m 608 138 0 -4 -4 0 4 -4 4 4 -4 0 z" /></g><text transform="rotate(-45,608,130)" x="610" y="126">EV_CONNECTED</text><g fill="none" stroke="#edd400" stroke-width="4"><path d="M 460 530 L 613 530 Q 633 530 633 550 L 633 734" /><path d="m 633 726 0 4 4 0 -4 4 -4 -4 4 0 z" /></g><text transform="rotate(45,633,734)" x="637" y="742">EV_DROP</text><g fill="none" stroke="#73d216" stroke-width="4"><path d="M 460 554 L 638 554 Q 658 554 658 574 L 658 734" /><path d="m 658 726 0 4 4 0 -4 4 -4 -4 4 0 z" /></g><text transform="rotate(45,658,734)" x="662" y="742">EV_TX_DATA</text><g fill="none" stroke="black" stroke-width="1"><path d="M 460 410 L 468 410 Q 478 410 478 400 L 478 223 Q 478 213 468 213 L 458 213" /><path d="m 474 213 -8 0 0 8 -8 -8 8 -8 0 8 z" fill="black" /></g><g fill="none" stroke="black" stroke-width="1"><path d="M 460 434 L 478 434 Q 488 434 488 424 L 488 223 Q 488 213 478 213 L 458 213" /><path d="m 474 213 -8 0 0 8 -8 -8 8 -8 0 8 z" fill="black" /></g><g fill="none" stroke="black" stroke-width="1"><path d="M 460 386 L 488 386 Q 498 386 498 396 L 498 491 Q 498 501 488 501 L 458 501" /><path d="m 474 501 -8 0 0 8 -8 -8 8 -8 0 8 z" fill="black" /></g><g fill="none" stroke="black" stroke-width="1"><path d="M 460 578 L 498 578 Q 508 578 508 568 L 508 223 Q 508 213 498 213 L 458 213" /><path d="m 474 213 -8 0 0 8 -8 -8 8 -8 0 8 z" fill="black" /></g></g></svg>