<?xml version="1.0" encoding="UTF-8" standalone="no"?>
<!-- Created with Inkscape (http://www.inkscape.org/) -->

<svg
   xmlns:dc="http://purl.org/dc/elements/1.1/"
   xmlns:cc="http://creativecommons.org/ns#"
   xmlns:rdf="http://www.w3.org/1999/02/22-rdf-syntax-ns#"
   xmlns:svg="http://www.w3.org/2000/svg"
   xmlns="http://www.w3.org/2000/svg"
   xmlns:xlink="http://www.w3.org/1999/xlink"
   xmlns:sodipodi="http://sodipodi.sourceforge.net/DTD/sodipodi-0.dtd"
   xmlns:inkscape="http://www.inkscape.org/namespaces/inkscape"
   id="svg2876"
   version="1.1"
   inkscape:version="0.47 r22583"
   width="192"
   height="192"
   sodipodi:docname="great_wave.jpg">
  <metadata
     id="metadata2882">
    <rdf:RDF>
      <cc:Work
         rdf:about="">
        <dc:format>image/svg+xml</dc:format>
        <dc:type
           rdf:resource="http://purl.org/dc/dcmitype/StillImage" />
        <dc:title></dc:title>
      </cc:Work>
    </rdf:RDF>
  </metadata>
  <defs
     id="defs2880">
    <linearGradient
       id="linearGradient3699">
      <stop
         style="stop-color:#ffe43b;stop-opacity:1;"
         offset="0"
         id="stop3701" />
      <stop
         style="stop-color:#ffefc6;stop-opacity:1;"
         offset="1"
         id="stop3703" />
    </linearGradient>
    <linearGradient
       id="linearGradient3687">
      <stop
         style="stop-color:#ffff91;stop-opacity:1;"
         offset="0"
         id="stop3689" />
      <stop
         style="stop-color:#f1a200;stop-opacity:1;"
         offset="1"
         id="stop3691" />
    </linearGradient>
    <inkscape:perspective
       sodipodi:type="inkscape:persp3d"
       inkscape:vp_x="0 : 0.5 : 1"
       inkscape:vp_y="0 : 1000 : 0"
       inkscape:vp_z="1 : 0.5 : 1"
       inkscape:persp3d-origin="0.5 : 0.33333333 : 1"
       id="perspective2884" />
    <inkscape:perspective
       id="perspective2901"
       inkscape:persp3d-origin="0.5 : 0.33333333 : 1"
       inkscape:vp_z="1 : 0.5 : 1"
       inkscape:vp_y="0 : 1000 : 0"
       inkscape:vp_x="0 : 0.5 : 1"
       sodipodi:type="inkscape:persp3d" />
    <linearGradient
       inkscape:collect="always"
       xlink:href="#linearGradient3687"
       id="linearGradient3693"
       x1="265.01672"
       y1="245.93831"
       x2="322.61465"
       y2="382.20316"
       gradientUnits="userSpaceOnUse"
       gradientTransform="matrix(0.3352353,0,0,0.3352353,1.5798761,23.912682)" />
    <linearGradient
       inkscape:collect="always"
       xlink:href="#linearGradient3699"
       id="linearGradient3705"
       x1="603.12512"
       y1="498.40204"
       x2="657.92474"
       y2="294.60455"
       gradientUnits="userSpaceOnUse"
       gradientTransform="matrix(0.20111174,0,0,0.37347076,2.6928027,10.847683)" />
    <inkscape:perspective
       id="perspective3717"
       inkscape:persp3d-origin="0.5 : 0.33333333 : 1"
       inkscape:vp_z="1 : 0.5 : 1"
       inkscape:vp_y="0 : 1000 : 0"
       inkscape:vp_x="0 : 0.5 : 1"
       sodipodi:type="inkscape:persp3d" />
    <inkscape:perspective
       id="perspective3717-9"
       inkscape:persp3d-origin="0.5 : 0.33333333 : 1"
       inkscape:vp_z="1 : 0.5 : 1"
       inkscape:vp_y="0 : 1000 : 0"
       inkscape:vp_x="0 : 0.5 : 1"
       sodipodi:type="inkscape:persp3d" />
    <inkscape:perspective
       id="perspective3717-8"
       inkscape:persp3d-origin="0.5 : 0.33333333 : 1"
       inkscape:vp_z="1 : 0.5 : 1"
       inkscape:vp_y="0 : 1000 : 0"
       inkscape:vp_x="0 : 0.5 : 1"
       sodipodi:type="inkscape:persp3d" />
    <inkscape:perspective
       id="perspective3717-5"
       inkscape:persp3d-origin="0.5 : 0.33333333 : 1"
       inkscape:vp_z="1 : 0.5 : 1"
       inkscape:vp_y="0 : 1000 : 0"
       inkscape:vp_x="0 : 0.5 : 1"
       sodipodi:type="inkscape:persp3d" />
    <inkscape:perspective
       id="perspective3717-90"
       inkscape:persp3d-origin="0.5 : 0.33333333 : 1"
       inkscape:vp_z="1 : 0.5 : 1"
       inkscape:vp_y="0 : 1000 : 0"
       inkscape:vp_x="0 : 0.5 : 1"
       sodipodi:type="inkscape:persp3d" />
    <inkscape:perspective
       id="perspective3783"
       inkscape:persp3d-origin="0.5 : 0.33333333 : 1"
       inkscape:vp_z="1 : 0.5 : 1"
       inkscape:vp_y="0 : 1000 : 0"
       inkscape:vp_x="0 : 0.5 : 1"
       sodipodi:type="inkscape:persp3d" />
    <inkscape:perspective
       id="perspective3859"
       inkscape:persp3d-origin="0.5 : 0.33333333 : 1"
       inkscape:vp_z="1 : 0.5 : 1"
       inkscape:vp_y="0 : 1000 : 0"
       inkscape:vp_x="0 : 0.5 : 1"
       sodipodi:type="inkscape:persp3d" />
    <filter
       inkscape:collect="always"
       id="filter3873">
      <feGaussianBlur
         inkscape:collect="always"
         stdDeviation="0.94498756"
         id="feGaussianBlur3875" />
    </filter>
  </defs>
  <sodipodi:namedview
     pagecolor="#ffffff"
     bordercolor="#666666"
     borderopacity="1"
     objecttolerance="10"
     gridtolerance="10"
     guidetolerance="10"
     inkscape:pageopacity="0"
     inkscape:pageshadow="2"
     inkscape:window-width="1280"
     inkscape:window-height="949"
     id="namedview2878"
     showgrid="false"
     inkscape:zoom="2.1428854"
     inkscape:cx="85.827035"
     inkscape:cy="74.825425"
     inkscape:window-x="0"
     inkscape:window-y="24"
     inkscape:window-maximized="1"
     inkscape:current-layer="svg2876" />
  <rect
     style="fill:#99ffd5;fill-opacity:0.65071768;stroke:#0087dc;stroke-width:4.94141340000000007;stroke-miterlimit:4;stroke-opacity:1;stroke-dasharray:none"
     id="rect3841"
     width="186.78296"
     height="186.78296"
     x="2.7343466"
     y="-190.2083"
     rx="5"
     ry="5"
     transform="scale(1,-1)" />
  <rect
     style="fill:url(#linearGradient3705);fill-opacity:1;stroke:#caa800;stroke-width:2.52163386000000012;stroke-miterlimit:4;stroke-opacity:0.52444446;stroke-dasharray:none"
     id="rect3697"
     width="188.98874"
     height="59.555077"
     x="1.0303609"
     y="135.71307"
     rx="5"
     ry="5" />
  <path
     style="fill:#000000;stroke:#000000;stroke-width:0.3352353px;stroke-linecap:butt;stroke-linejoin:miter;stroke-opacity:1"
     d="m 1.5798761,107.61141 c 0,0 20.0854399,-8.95201 36.9200939,-21.901746 16.269872,-12.515285 33.327486,-23.888304 47.558087,-31.288218 15.644103,-8.134934 32.520203,-11.569886 48.809623,-8.7607 16.57229,2.857971 34.03859,11.339159 43.80351,25.030578 7.15011,10.025202 9.50006,24.867917 6.8834,36.294326 -2.61666,11.42642 -10.01223,21.90176 -10.01223,21.90176 0,0 4.30744,-23.41854 -16.26987,-38.797393 -3.01407,-2.252628 -14.72597,-7.421785 -29.41092,3.754585 -10.12502,7.705908 -13.76682,20.650218 -6.88341,37.545858 9.61163,20.97847 21.92967,43.60253 45.68079,51.93843 16.89563,1.25154 -168.33060114,-1.25152 -168.33060114,-1.25152 L 1.5798761,107.61141 z"
     id="path2888"
     sodipodi:nodetypes="cssaazcsscccc" />
  <path
     style="fill:url(#linearGradient3693);fill-opacity:1;stroke:#e7ad00;stroke-width:6.70470619;stroke-linecap:butt;stroke-linejoin:miter;stroke-miterlimit:4;stroke-opacity:0.33777777;stroke-dasharray:none"
     d="m 1.6795147,114.8599 c 0,0 27.4753433,-12.31663 42.6365773,-23.797031 C 58.968684,79.967624 73.203596,66.556461 86.019629,59.996175 100.10866,52.784261 120.96252,46.98701 134.4237,50.139201 c 17.55053,4.109787 31.99394,10.645239 40.69708,23.712782 6.61096,9.92619 7.0613,25.337975 4.70475,35.467907 -2.35656,10.12991 -1.0284,7.31844 -1.0284,7.31844 0,0 2.99773,-22.558027 -22.0717,-33.915474 -9.64606,-4.370051 -25.14752,0.468735 -34.50974,8.459803 -9.7641,8.334089 -12.37813,20.322251 -9.1929,32.555721 6.08871,23.38485 27.12387,46.47735 48.51405,53.86743 15.21615,1.10952 -160.98445004,-1.10953 -160.98445004,-1.10953 L 1.6795147,114.8599 z"
     id="path2888-7"
     sodipodi:nodetypes="csssazcsssccc" />
  <path
     style="fill:#ffffff;stroke:#daf1ff;stroke-width:5;stroke-linecap:butt;stroke-linejoin:miter;stroke-opacity:1;fill-opacity:0.65071767999999997;stroke-miterlimit:4;stroke-dasharray:none"
     d="m 10.266531,94.467953 c 0,0 36.39952,-29.399613 52.732638,-37.332842 16.333118,-7.933229 30.142045,-15.806098 46.666051,-18.199759 12.82294,-1.857526 31.73292,1.399981 38.73283,3.266623 6.9999,1.866642 19.13308,7.466568 22.3997,10.733192 3.26663,3.266623 11.66651,3.266623 11.66651,3.266623 0,0 1.86664,-38.732822 0.46666,-41.532785 -1.39998,-2.799963 -113.865164,0 -113.865164,0 0,0 -26.884367,-2.413248 -38.732823,2.799962 -7.050373,3.102099 -13.459442,8.925786 -16.799778,15.866458 -4.873772,10.126901 -2.237765,22.374954 -2.799963,33.599557 -0.459165,9.167483 -0.466661,27.532971 -0.466661,27.532971 z"
     id="path3877"
     sodipodi:nodetypes="csasscscaaac" />
  <g
     id="g3827"
     style="stroke:#ff9f0d;stroke-opacity:0.77333332"
     transform="matrix(0.3352353,0,0,0.3352353,-43.385741,10.458688)">
    <path
       id="path3707"
       d="m 171.73107,316.09587 0,197.86406"
       style="fill:none;stroke:#ff9f0d;stroke-width:5;stroke-linecap:butt;stroke-linejoin:miter;stroke-miterlimit:4;stroke-opacity:0.77333332;stroke-dasharray:none" />
    <path
       id="path3707-2"
       d="m 373.32837,399.0596 0,115.93549"
       style="fill:none;stroke:#ff9f0d;stroke-width:3.82731986;stroke-linecap:butt;stroke-linejoin:miter;stroke-miterlimit:4;stroke-opacity:0.77333332;stroke-dasharray:none" />
    <path
       id="path3707-6"
       d="m 292.68946,316.09587 0,197.86406"
       style="fill:none;stroke:#ff9f0d;stroke-width:5;stroke-linecap:butt;stroke-linejoin:miter;stroke-miterlimit:4;stroke-opacity:0.77333332;stroke-dasharray:none" />
    <path
       id="path3707-1"
       d="m 252.37,316.09587 0,197.86406"
       style="fill:none;stroke:#ff9f0d;stroke-width:5;stroke-linecap:butt;stroke-linejoin:miter;stroke-miterlimit:4;stroke-opacity:0.77333332;stroke-dasharray:none" />
    <path
       id="path3707-29"
       d="m 333.00891,316.09587 0,197.86406"
       style="fill:none;stroke:#ff9f0d;stroke-width:5;stroke-linecap:butt;stroke-linejoin:miter;stroke-miterlimit:4;stroke-opacity:0.77333332;stroke-dasharray:none" />
    <path
       id="path3707-4"
       d="m 212.05054,316.09587 0,197.86406"
       style="fill:none;stroke:#ff9f0d;stroke-width:5;stroke-linecap:butt;stroke-linejoin:miter;stroke-miterlimit:4;stroke-opacity:0.77333332;stroke-dasharray:none" />
    <path
       id="path3707-5"
       d="m 345.32878,331.80386 -197.86406,0"
       style="fill:none;stroke:#ff9f0d;stroke-width:5;stroke-linecap:butt;stroke-linejoin:miter;stroke-miterlimit:4;stroke-opacity:0.77333332;stroke-dasharray:none" />
    <path
       id="path3707-2-8"
       d="m 345.32878,533.40116 -197.86406,0"
       style="fill:none;stroke:#ff9f0d;stroke-width:5;stroke-linecap:butt;stroke-linejoin:miter;stroke-miterlimit:4;stroke-opacity:0.77333332;stroke-dasharray:none" />
    <path
       id="path3707-6-5"
       d="m 389.5761,452.76225 -241.55929,0"
       style="fill:none;stroke:#ff9f0d;stroke-width:5.52456951;stroke-linecap:butt;stroke-linejoin:miter;stroke-miterlimit:4;stroke-opacity:0.77333332;stroke-dasharray:none" />
    <path
       id="path3707-1-4"
       d="m 389.5761,412.44279 -241.55929,0"
       style="fill:none;stroke:#ff9f0d;stroke-width:5.52456951;stroke-linecap:butt;stroke-linejoin:miter;stroke-miterlimit:4;stroke-opacity:0.77333332;stroke-dasharray:none" />
    <path
       id="path3707-29-7"
       d="m 345.32878,493.0817 -197.86406,0"
       style="fill:none;stroke:#ff9f0d;stroke-width:5;stroke-linecap:butt;stroke-linejoin:miter;stroke-miterlimit:4;stroke-opacity:0.77333332;stroke-dasharray:none" />
    <path
       id="path3707-4-0"
       d="m 345.32878,372.12333 -197.86406,0"
       style="fill:none;stroke:#ff9f0d;stroke-width:5;stroke-linecap:butt;stroke-linejoin:miter;stroke-miterlimit:4;stroke-opacity:0.77333332;stroke-dasharray:none" />
  </g>
  <path
     id="path2890"
     style="fill:#806b00;fill-opacity:1;stroke:#ffc759;stroke-width:3.32612967;stroke-linecap:butt;stroke-linejoin:miter;stroke-miterlimit:4;stroke-opacity:0.42666668;stroke-dasharray:none"
     d="m 1.5466174,150.78133 c 0,0 -1.84707277,26.92193 20.9334906,26.92193 22.780566,0 36.941459,-2.50436 49.870969,-8.13919 12.929509,-5.63482 29.553163,-24.41756 31.400243,-28.17412 1.84707,-3.75655 10.53745,8.1248 16.00796,11.89574 10.22804,7.05041 20.41567,14.28052 31.40024,20.03493 8.24679,4.32018 32.63162,15.65229 38.78853,16.90447 l -189.63281219,0.6261"
     sodipodi:nodetypes="csssascc" />
  <rect
     style="fill:none;stroke:#001319;stroke-width:5;stroke-miterlimit:4;stroke-opacity:1;stroke-dasharray:none;filter:url(#filter3873)"
     id="rect3841-4"
     width="188.99751"
     height="188.99751"
     x="1.633309"
     y="-192.23334"
     rx="5.0592813"
     ry="5.0592813"
     transform="matrix(0.98828264,0,0,-0.98828264,0.88957679,1.380416)" />
</svg>
